<?xml version="1.0" encoding="utf-8" standalone="no"?>
<!DOCTYPE svg PUBLIC "-//W3C//DTD SVG 1.1//EN"
  "http://www.w3.org/Graphics/SVG/1.1/DTD/svg11.dtd">
<!-- Created with matplotlib (https://matplotlib.org/) -->
<svg height="720pt" version="1.1" viewBox="0 0 1440 720" width="1440pt" xmlns="http://www.w3.org/2000/svg" xmlns:xlink="http://www.w3.org/1999/xlink">
 <metadata>
  <rdf:RDF xmlns:cc="http://creativecommons.org/ns#" xmlns:dc="http://purl.org/dc/elements/1.1/" xmlns:rdf="http://www.w3.org/1999/02/22-rdf-syntax-ns#">
   <cc:Work>
    <dc:type rdf:resource="http://purl.org/dc/dcmitype/StillImage"/>
    <dc:date>2021-02-16T09:01:40.560009</dc:date>
    <dc:format>image/svg+xml</dc:format>
    <dc:creator>
     <cc:Agent>
      <dc:title>Matplotlib v3.3.3, https://matplotlib.org/</dc:title>
     </cc:Agent>
    </dc:creator>
   </cc:Work>
  </rdf:RDF>
 </metadata>
 <defs>
  <style type="text/css">*{stroke-linecap:butt;stroke-linejoin:round;}</style>
 </defs>
 <g id="figure_1">
  <g id="patch_1">
   <path d="M 0 720 
L 1440 720 
L 1440 0 
L 0 0 
z
" style="fill:#ffffff;"/>
  </g>
  <g id="axes_1">
   <g id="patch_2">
    <path d="M 180 640.8 
L 1296 640.8 
L 1296 86.4 
L 180 86.4 
z
" style="fill:#ffffff;"/>
   </g>
   <g id="matplotlib.axis_1">
    <g id="xtick_1">
     <g id="line2d_1">
      <defs>
       <path d="M 0 0 
L 0 3.5 
" id="m45b7b93be1" style="stroke:#000000;stroke-width:0.8;"/>
      </defs>
      <g>
       <use style="stroke:#000000;stroke-width:0.8;" x="186.184171" xlink:href="#m45b7b93be1" y="640.8"/>
      </g>
     </g>
     <g id="text_1">
      <!-- 0 -->
      <g transform="translate(183.002921 655.398438)scale(0.1 -0.1)">
       <defs>
        <path d="M 31.78125 66.40625 
Q 24.171875 66.40625 20.328125 58.90625 
Q 16.5 51.421875 16.5 36.375 
Q 16.5 21.390625 20.328125 13.890625 
Q 24.171875 6.390625 31.78125 6.390625 
Q 39.453125 6.390625 43.28125 13.890625 
Q 47.125 21.390625 47.125 36.375 
Q 47.125 51.421875 43.28125 58.90625 
Q 39.453125 66.40625 31.78125 66.40625 
z
M 31.78125 74.21875 
Q 44.046875 74.21875 50.515625 64.515625 
Q 56.984375 54.828125 56.984375 36.375 
Q 56.984375 17.96875 50.515625 8.265625 
Q 44.046875 -1.421875 31.78125 -1.421875 
Q 19.53125 -1.421875 13.0625 8.265625 
Q 6.59375 17.96875 6.59375 36.375 
Q 6.59375 54.828125 13.0625 64.515625 
Q 19.53125 74.21875 31.78125 74.21875 
z
" id="DejaVuSans-48"/>
       </defs>
       <use xlink:href="#DejaVuSans-48"/>
      </g>
     </g>
    </g>
    <g id="xtick_2">
     <g id="line2d_2">
      <g>
       <use style="stroke:#000000;stroke-width:0.8;" x="421.204708" xlink:href="#m45b7b93be1" y="640.8"/>
      </g>
     </g>
     <g id="text_2">
      <!-- 1 -->
      <g transform="translate(418.023458 655.398438)scale(0.1 -0.1)">
       <defs>
        <path d="M 12.40625 8.296875 
L 28.515625 8.296875 
L 28.515625 63.921875 
L 10.984375 60.40625 
L 10.984375 69.390625 
L 28.421875 72.90625 
L 38.28125 72.90625 
L 38.28125 8.296875 
L 54.390625 8.296875 
L 54.390625 0 
L 12.40625 0 
z
" id="DejaVuSans-49"/>
       </defs>
       <use xlink:href="#DejaVuSans-49"/>
      </g>
     </g>
    </g>
    <g id="xtick_3">
     <g id="line2d_3">
      <g>
       <use style="stroke:#000000;stroke-width:0.8;" x="656.225244" xlink:href="#m45b7b93be1" y="640.8"/>
      </g>
     </g>
     <g id="text_3">
      <!-- 2 -->
      <g transform="translate(653.043994 655.398438)scale(0.1 -0.1)">
       <defs>
        <path d="M 19.1875 8.296875 
L 53.609375 8.296875 
L 53.609375 0 
L 7.328125 0 
L 7.328125 8.296875 
Q 12.9375 14.109375 22.625 23.890625 
Q 32.328125 33.6875 34.8125 36.53125 
Q 39.546875 41.84375 41.421875 45.53125 
Q 43.3125 49.21875 43.3125 52.78125 
Q 43.3125 58.59375 39.234375 62.25 
Q 35.15625 65.921875 28.609375 65.921875 
Q 23.96875 65.921875 18.8125 64.3125 
Q 13.671875 62.703125 7.8125 59.421875 
L 7.8125 69.390625 
Q 13.765625 71.78125 18.9375 73 
Q 24.125 74.21875 28.421875 74.21875 
Q 39.75 74.21875 46.484375 68.546875 
Q 53.21875 62.890625 53.21875 53.421875 
Q 53.21875 48.921875 51.53125 44.890625 
Q 49.859375 40.875 45.40625 35.40625 
Q 44.1875 33.984375 37.640625 27.21875 
Q 31.109375 20.453125 19.1875 8.296875 
z
" id="DejaVuSans-50"/>
       </defs>
       <use xlink:href="#DejaVuSans-50"/>
      </g>
     </g>
    </g>
    <g id="xtick_4">
     <g id="line2d_4">
      <g>
       <use style="stroke:#000000;stroke-width:0.8;" x="891.245781" xlink:href="#m45b7b93be1" y="640.8"/>
      </g>
     </g>
     <g id="text_4">
      <!-- 3 -->
      <g transform="translate(888.064531 655.398438)scale(0.1 -0.1)">
       <defs>
        <path d="M 40.578125 39.3125 
Q 47.65625 37.796875 51.625 33 
Q 55.609375 28.21875 55.609375 21.1875 
Q 55.609375 10.40625 48.1875 4.484375 
Q 40.765625 -1.421875 27.09375 -1.421875 
Q 22.515625 -1.421875 17.65625 -0.515625 
Q 12.796875 0.390625 7.625 2.203125 
L 7.625 11.71875 
Q 11.71875 9.328125 16.59375 8.109375 
Q 21.484375 6.890625 26.8125 6.890625 
Q 36.078125 6.890625 40.9375 10.546875 
Q 45.796875 14.203125 45.796875 21.1875 
Q 45.796875 27.640625 41.28125 31.265625 
Q 36.765625 34.90625 28.71875 34.90625 
L 20.21875 34.90625 
L 20.21875 43.015625 
L 29.109375 43.015625 
Q 36.375 43.015625 40.234375 45.921875 
Q 44.09375 48.828125 44.09375 54.296875 
Q 44.09375 59.90625 40.109375 62.90625 
Q 36.140625 65.921875 28.71875 65.921875 
Q 24.65625 65.921875 20.015625 65.03125 
Q 15.375 64.15625 9.8125 62.3125 
L 9.8125 71.09375 
Q 15.4375 72.65625 20.34375 73.4375 
Q 25.25 74.21875 29.59375 74.21875 
Q 40.828125 74.21875 47.359375 69.109375 
Q 53.90625 64.015625 53.90625 55.328125 
Q 53.90625 49.265625 50.4375 45.09375 
Q 46.96875 40.921875 40.578125 39.3125 
z
" id="DejaVuSans-51"/>
       </defs>
       <use xlink:href="#DejaVuSans-51"/>
      </g>
     </g>
    </g>
    <g id="xtick_5">
     <g id="line2d_5">
      <g>
       <use style="stroke:#000000;stroke-width:0.8;" x="1126.266317" xlink:href="#m45b7b93be1" y="640.8"/>
      </g>
     </g>
     <g id="text_5">
      <!-- 4 -->
      <g transform="translate(1123.085067 655.398438)scale(0.1 -0.1)">
       <defs>
        <path d="M 37.796875 64.3125 
L 12.890625 25.390625 
L 37.796875 25.390625 
z
M 35.203125 72.90625 
L 47.609375 72.90625 
L 47.609375 25.390625 
L 58.015625 25.390625 
L 58.015625 17.1875 
L 47.609375 17.1875 
L 47.609375 0 
L 37.796875 0 
L 37.796875 17.1875 
L 4.890625 17.1875 
L 4.890625 26.703125 
z
" id="DejaVuSans-52"/>
       </defs>
       <use xlink:href="#DejaVuSans-52"/>
      </g>
     </g>
    </g>
    <g id="text_6">
     <!-- ID1-ID2_logFC -->
     <g transform="translate(649.734375 680.474219)scale(0.25 -0.25)">
      <defs>
       <path d="M 9.8125 72.90625 
L 19.671875 72.90625 
L 19.671875 0 
L 9.8125 0 
z
" id="DejaVuSans-73"/>
       <path d="M 19.671875 64.796875 
L 19.671875 8.109375 
L 31.59375 8.109375 
Q 46.6875 8.109375 53.6875 14.9375 
Q 60.6875 21.78125 60.6875 36.53125 
Q 60.6875 51.171875 53.6875 57.984375 
Q 46.6875 64.796875 31.59375 64.796875 
z
M 9.8125 72.90625 
L 30.078125 72.90625 
Q 51.265625 72.90625 61.171875 64.09375 
Q 71.09375 55.28125 71.09375 36.53125 
Q 71.09375 17.671875 61.125 8.828125 
Q 51.171875 0 30.078125 0 
L 9.8125 0 
z
" id="DejaVuSans-68"/>
       <path d="M 4.890625 31.390625 
L 31.203125 31.390625 
L 31.203125 23.390625 
L 4.890625 23.390625 
z
" id="DejaVuSans-45"/>
       <path d="M 50.984375 -16.609375 
L 50.984375 -23.578125 
L -0.984375 -23.578125 
L -0.984375 -16.609375 
z
" id="DejaVuSans-95"/>
       <path d="M 9.421875 75.984375 
L 18.40625 75.984375 
L 18.40625 0 
L 9.421875 0 
z
" id="DejaVuSans-108"/>
       <path d="M 30.609375 48.390625 
Q 23.390625 48.390625 19.1875 42.75 
Q 14.984375 37.109375 14.984375 27.296875 
Q 14.984375 17.484375 19.15625 11.84375 
Q 23.34375 6.203125 30.609375 6.203125 
Q 37.796875 6.203125 41.984375 11.859375 
Q 46.1875 17.53125 46.1875 27.296875 
Q 46.1875 37.015625 41.984375 42.703125 
Q 37.796875 48.390625 30.609375 48.390625 
z
M 30.609375 56 
Q 42.328125 56 49.015625 48.375 
Q 55.71875 40.765625 55.71875 27.296875 
Q 55.71875 13.875 49.015625 6.21875 
Q 42.328125 -1.421875 30.609375 -1.421875 
Q 18.84375 -1.421875 12.171875 6.21875 
Q 5.515625 13.875 5.515625 27.296875 
Q 5.515625 40.765625 12.171875 48.375 
Q 18.84375 56 30.609375 56 
z
" id="DejaVuSans-111"/>
       <path d="M 45.40625 27.984375 
Q 45.40625 37.75 41.375 43.109375 
Q 37.359375 48.484375 30.078125 48.484375 
Q 22.859375 48.484375 18.828125 43.109375 
Q 14.796875 37.75 14.796875 27.984375 
Q 14.796875 18.265625 18.828125 12.890625 
Q 22.859375 7.515625 30.078125 7.515625 
Q 37.359375 7.515625 41.375 12.890625 
Q 45.40625 18.265625 45.40625 27.984375 
z
M 54.390625 6.78125 
Q 54.390625 -7.171875 48.1875 -13.984375 
Q 42 -20.796875 29.203125 -20.796875 
Q 24.46875 -20.796875 20.265625 -20.09375 
Q 16.0625 -19.390625 12.109375 -17.921875 
L 12.109375 -9.1875 
Q 16.0625 -11.328125 19.921875 -12.34375 
Q 23.78125 -13.375 27.78125 -13.375 
Q 36.625 -13.375 41.015625 -8.765625 
Q 45.40625 -4.15625 45.40625 5.171875 
L 45.40625 9.625 
Q 42.625 4.78125 38.28125 2.390625 
Q 33.9375 0 27.875 0 
Q 17.828125 0 11.671875 7.65625 
Q 5.515625 15.328125 5.515625 27.984375 
Q 5.515625 40.671875 11.671875 48.328125 
Q 17.828125 56 27.875 56 
Q 33.9375 56 38.28125 53.609375 
Q 42.625 51.21875 45.40625 46.390625 
L 45.40625 54.6875 
L 54.390625 54.6875 
z
" id="DejaVuSans-103"/>
       <path d="M 9.8125 72.90625 
L 51.703125 72.90625 
L 51.703125 64.59375 
L 19.671875 64.59375 
L 19.671875 43.109375 
L 48.578125 43.109375 
L 48.578125 34.8125 
L 19.671875 34.8125 
L 19.671875 0 
L 9.8125 0 
z
" id="DejaVuSans-70"/>
       <path d="M 64.40625 67.28125 
L 64.40625 56.890625 
Q 59.421875 61.53125 53.78125 63.8125 
Q 48.140625 66.109375 41.796875 66.109375 
Q 29.296875 66.109375 22.65625 58.46875 
Q 16.015625 50.828125 16.015625 36.375 
Q 16.015625 21.96875 22.65625 14.328125 
Q 29.296875 6.6875 41.796875 6.6875 
Q 48.140625 6.6875 53.78125 8.984375 
Q 59.421875 11.28125 64.40625 15.921875 
L 64.40625 5.609375 
Q 59.234375 2.09375 53.4375 0.328125 
Q 47.65625 -1.421875 41.21875 -1.421875 
Q 24.65625 -1.421875 15.125 8.703125 
Q 5.609375 18.84375 5.609375 36.375 
Q 5.609375 53.953125 15.125 64.078125 
Q 24.65625 74.21875 41.21875 74.21875 
Q 47.75 74.21875 53.53125 72.484375 
Q 59.328125 70.75 64.40625 67.28125 
z
" id="DejaVuSans-67"/>
      </defs>
      <use xlink:href="#DejaVuSans-73"/>
      <use x="29.492188" xlink:href="#DejaVuSans-68"/>
      <use x="106.494141" xlink:href="#DejaVuSans-49"/>
      <use x="170.117188" xlink:href="#DejaVuSans-45"/>
      <use x="206.201172" xlink:href="#DejaVuSans-73"/>
      <use x="235.693359" xlink:href="#DejaVuSans-68"/>
      <use x="312.695312" xlink:href="#DejaVuSans-50"/>
      <use x="376.318359" xlink:href="#DejaVuSans-95"/>
      <use x="426.318359" xlink:href="#DejaVuSans-108"/>
      <use x="454.101562" xlink:href="#DejaVuSans-111"/>
      <use x="515.283203" xlink:href="#DejaVuSans-103"/>
      <use x="578.759766" xlink:href="#DejaVuSans-70"/>
      <use x="636.279297" xlink:href="#DejaVuSans-67"/>
     </g>
    </g>
   </g>
   <g id="matplotlib.axis_2">
    <g id="ytick_1">
     <g id="line2d_6">
      <defs>
       <path d="M 0 0 
L -3.5 0 
" id="mabe51100f5" style="stroke:#000000;stroke-width:0.8;"/>
      </defs>
      <g>
       <use style="stroke:#000000;stroke-width:0.8;" x="180" xlink:href="#mabe51100f5" y="640.8"/>
      </g>
     </g>
     <g id="text_7">
      <!-- 0.0 -->
      <g transform="translate(157.096875 644.599219)scale(0.1 -0.1)">
       <defs>
        <path d="M 10.6875 12.40625 
L 21 12.40625 
L 21 0 
L 10.6875 0 
z
" id="DejaVuSans-46"/>
       </defs>
       <use xlink:href="#DejaVuSans-48"/>
       <use x="63.623047" xlink:href="#DejaVuSans-46"/>
       <use x="95.410156" xlink:href="#DejaVuSans-48"/>
      </g>
     </g>
    </g>
    <g id="ytick_2">
     <g id="line2d_7">
      <g>
       <use style="stroke:#000000;stroke-width:0.8;" x="180" xlink:href="#mabe51100f5" y="559.59626"/>
      </g>
     </g>
     <g id="text_8">
      <!-- 0.1 -->
      <g transform="translate(157.096875 563.395479)scale(0.1 -0.1)">
       <use xlink:href="#DejaVuSans-48"/>
       <use x="63.623047" xlink:href="#DejaVuSans-46"/>
       <use x="95.410156" xlink:href="#DejaVuSans-49"/>
      </g>
     </g>
    </g>
    <g id="ytick_3">
     <g id="line2d_8">
      <g>
       <use style="stroke:#000000;stroke-width:0.8;" x="180" xlink:href="#mabe51100f5" y="478.39252"/>
      </g>
     </g>
     <g id="text_9">
      <!-- 0.2 -->
      <g transform="translate(157.096875 482.191739)scale(0.1 -0.1)">
       <use xlink:href="#DejaVuSans-48"/>
       <use x="63.623047" xlink:href="#DejaVuSans-46"/>
       <use x="95.410156" xlink:href="#DejaVuSans-50"/>
      </g>
     </g>
    </g>
    <g id="ytick_4">
     <g id="line2d_9">
      <g>
       <use style="stroke:#000000;stroke-width:0.8;" x="180" xlink:href="#mabe51100f5" y="397.18878"/>
      </g>
     </g>
     <g id="text_10">
      <!-- 0.3 -->
      <g transform="translate(157.096875 400.987999)scale(0.1 -0.1)">
       <use xlink:href="#DejaVuSans-48"/>
       <use x="63.623047" xlink:href="#DejaVuSans-46"/>
       <use x="95.410156" xlink:href="#DejaVuSans-51"/>
      </g>
     </g>
    </g>
    <g id="ytick_5">
     <g id="line2d_10">
      <g>
       <use style="stroke:#000000;stroke-width:0.8;" x="180" xlink:href="#mabe51100f5" y="315.98504"/>
      </g>
     </g>
     <g id="text_11">
      <!-- 0.4 -->
      <g transform="translate(157.096875 319.784259)scale(0.1 -0.1)">
       <use xlink:href="#DejaVuSans-48"/>
       <use x="63.623047" xlink:href="#DejaVuSans-46"/>
       <use x="95.410156" xlink:href="#DejaVuSans-52"/>
      </g>
     </g>
    </g>
    <g id="ytick_6">
     <g id="line2d_11">
      <g>
       <use style="stroke:#000000;stroke-width:0.8;" x="180" xlink:href="#mabe51100f5" y="234.7813"/>
      </g>
     </g>
     <g id="text_12">
      <!-- 0.5 -->
      <g transform="translate(157.096875 238.580519)scale(0.1 -0.1)">
       <defs>
        <path d="M 10.796875 72.90625 
L 49.515625 72.90625 
L 49.515625 64.59375 
L 19.828125 64.59375 
L 19.828125 46.734375 
Q 21.96875 47.46875 24.109375 47.828125 
Q 26.265625 48.1875 28.421875 48.1875 
Q 40.625 48.1875 47.75 41.5 
Q 54.890625 34.8125 54.890625 23.390625 
Q 54.890625 11.625 47.5625 5.09375 
Q 40.234375 -1.421875 26.90625 -1.421875 
Q 22.3125 -1.421875 17.546875 -0.640625 
Q 12.796875 0.140625 7.71875 1.703125 
L 7.71875 11.625 
Q 12.109375 9.234375 16.796875 8.0625 
Q 21.484375 6.890625 26.703125 6.890625 
Q 35.15625 6.890625 40.078125 11.328125 
Q 45.015625 15.765625 45.015625 23.390625 
Q 45.015625 31 40.078125 35.4375 
Q 35.15625 39.890625 26.703125 39.890625 
Q 22.75 39.890625 18.8125 39.015625 
Q 14.890625 38.140625 10.796875 36.28125 
z
" id="DejaVuSans-53"/>
       </defs>
       <use xlink:href="#DejaVuSans-48"/>
       <use x="63.623047" xlink:href="#DejaVuSans-46"/>
       <use x="95.410156" xlink:href="#DejaVuSans-53"/>
      </g>
     </g>
    </g>
    <g id="ytick_7">
     <g id="line2d_12">
      <g>
       <use style="stroke:#000000;stroke-width:0.8;" x="180" xlink:href="#mabe51100f5" y="153.57756"/>
      </g>
     </g>
     <g id="text_13">
      <!-- 0.6 -->
      <g transform="translate(157.096875 157.376779)scale(0.1 -0.1)">
       <defs>
        <path d="M 33.015625 40.375 
Q 26.375 40.375 22.484375 35.828125 
Q 18.609375 31.296875 18.609375 23.390625 
Q 18.609375 15.53125 22.484375 10.953125 
Q 26.375 6.390625 33.015625 6.390625 
Q 39.65625 6.390625 43.53125 10.953125 
Q 47.40625 15.53125 47.40625 23.390625 
Q 47.40625 31.296875 43.53125 35.828125 
Q 39.65625 40.375 33.015625 40.375 
z
M 52.59375 71.296875 
L 52.59375 62.3125 
Q 48.875 64.0625 45.09375 64.984375 
Q 41.3125 65.921875 37.59375 65.921875 
Q 27.828125 65.921875 22.671875 59.328125 
Q 17.53125 52.734375 16.796875 39.40625 
Q 19.671875 43.65625 24.015625 45.921875 
Q 28.375 48.1875 33.59375 48.1875 
Q 44.578125 48.1875 50.953125 41.515625 
Q 57.328125 34.859375 57.328125 23.390625 
Q 57.328125 12.15625 50.6875 5.359375 
Q 44.046875 -1.421875 33.015625 -1.421875 
Q 20.359375 -1.421875 13.671875 8.265625 
Q 6.984375 17.96875 6.984375 36.375 
Q 6.984375 53.65625 15.1875 63.9375 
Q 23.390625 74.21875 37.203125 74.21875 
Q 40.921875 74.21875 44.703125 73.484375 
Q 48.484375 72.75 52.59375 71.296875 
z
" id="DejaVuSans-54"/>
       </defs>
       <use xlink:href="#DejaVuSans-48"/>
       <use x="63.623047" xlink:href="#DejaVuSans-46"/>
       <use x="95.410156" xlink:href="#DejaVuSans-54"/>
      </g>
     </g>
    </g>
    <g id="text_14">
     <!-- Density -->
     <g transform="translate(147.897656 411.121484)rotate(-90)scale(0.25 -0.25)">
      <defs>
       <path d="M 56.203125 29.59375 
L 56.203125 25.203125 
L 14.890625 25.203125 
Q 15.484375 15.921875 20.484375 11.0625 
Q 25.484375 6.203125 34.421875 6.203125 
Q 39.59375 6.203125 44.453125 7.46875 
Q 49.3125 8.734375 54.109375 11.28125 
L 54.109375 2.78125 
Q 49.265625 0.734375 44.1875 -0.34375 
Q 39.109375 -1.421875 33.890625 -1.421875 
Q 20.796875 -1.421875 13.15625 6.1875 
Q 5.515625 13.8125 5.515625 26.8125 
Q 5.515625 40.234375 12.765625 48.109375 
Q 20.015625 56 32.328125 56 
Q 43.359375 56 49.78125 48.890625 
Q 56.203125 41.796875 56.203125 29.59375 
z
M 47.21875 32.234375 
Q 47.125 39.59375 43.09375 43.984375 
Q 39.0625 48.390625 32.421875 48.390625 
Q 24.90625 48.390625 20.390625 44.140625 
Q 15.875 39.890625 15.1875 32.171875 
z
" id="DejaVuSans-101"/>
       <path d="M 54.890625 33.015625 
L 54.890625 0 
L 45.90625 0 
L 45.90625 32.71875 
Q 45.90625 40.484375 42.875 44.328125 
Q 39.84375 48.1875 33.796875 48.1875 
Q 26.515625 48.1875 22.3125 43.546875 
Q 18.109375 38.921875 18.109375 30.90625 
L 18.109375 0 
L 9.078125 0 
L 9.078125 54.6875 
L 18.109375 54.6875 
L 18.109375 46.1875 
Q 21.34375 51.125 25.703125 53.5625 
Q 30.078125 56 35.796875 56 
Q 45.21875 56 50.046875 50.171875 
Q 54.890625 44.34375 54.890625 33.015625 
z
" id="DejaVuSans-110"/>
       <path d="M 44.28125 53.078125 
L 44.28125 44.578125 
Q 40.484375 46.53125 36.375 47.5 
Q 32.28125 48.484375 27.875 48.484375 
Q 21.1875 48.484375 17.84375 46.4375 
Q 14.5 44.390625 14.5 40.28125 
Q 14.5 37.15625 16.890625 35.375 
Q 19.28125 33.59375 26.515625 31.984375 
L 29.59375 31.296875 
Q 39.15625 29.25 43.1875 25.515625 
Q 47.21875 21.78125 47.21875 15.09375 
Q 47.21875 7.46875 41.1875 3.015625 
Q 35.15625 -1.421875 24.609375 -1.421875 
Q 20.21875 -1.421875 15.453125 -0.5625 
Q 10.6875 0.296875 5.421875 2 
L 5.421875 11.28125 
Q 10.40625 8.6875 15.234375 7.390625 
Q 20.0625 6.109375 24.8125 6.109375 
Q 31.15625 6.109375 34.5625 8.28125 
Q 37.984375 10.453125 37.984375 14.40625 
Q 37.984375 18.0625 35.515625 20.015625 
Q 33.0625 21.96875 24.703125 23.78125 
L 21.578125 24.515625 
Q 13.234375 26.265625 9.515625 29.90625 
Q 5.8125 33.546875 5.8125 39.890625 
Q 5.8125 47.609375 11.28125 51.796875 
Q 16.75 56 26.8125 56 
Q 31.78125 56 36.171875 55.265625 
Q 40.578125 54.546875 44.28125 53.078125 
z
" id="DejaVuSans-115"/>
       <path d="M 9.421875 54.6875 
L 18.40625 54.6875 
L 18.40625 0 
L 9.421875 0 
z
M 9.421875 75.984375 
L 18.40625 75.984375 
L 18.40625 64.59375 
L 9.421875 64.59375 
z
" id="DejaVuSans-105"/>
       <path d="M 18.3125 70.21875 
L 18.3125 54.6875 
L 36.8125 54.6875 
L 36.8125 47.703125 
L 18.3125 47.703125 
L 18.3125 18.015625 
Q 18.3125 11.328125 20.140625 9.421875 
Q 21.96875 7.515625 27.59375 7.515625 
L 36.8125 7.515625 
L 36.8125 0 
L 27.59375 0 
Q 17.1875 0 13.234375 3.875 
Q 9.28125 7.765625 9.28125 18.015625 
L 9.28125 47.703125 
L 2.6875 47.703125 
L 2.6875 54.6875 
L 9.28125 54.6875 
L 9.28125 70.21875 
z
" id="DejaVuSans-116"/>
       <path d="M 32.171875 -5.078125 
Q 28.375 -14.84375 24.75 -17.8125 
Q 21.140625 -20.796875 15.09375 -20.796875 
L 7.90625 -20.796875 
L 7.90625 -13.28125 
L 13.1875 -13.28125 
Q 16.890625 -13.28125 18.9375 -11.515625 
Q 21 -9.765625 23.484375 -3.21875 
L 25.09375 0.875 
L 2.984375 54.6875 
L 12.5 54.6875 
L 29.59375 11.921875 
L 46.6875 54.6875 
L 56.203125 54.6875 
z
" id="DejaVuSans-121"/>
      </defs>
      <use xlink:href="#DejaVuSans-68"/>
      <use x="77.001953" xlink:href="#DejaVuSans-101"/>
      <use x="138.525391" xlink:href="#DejaVuSans-110"/>
      <use x="201.904297" xlink:href="#DejaVuSans-115"/>
      <use x="254.003906" xlink:href="#DejaVuSans-105"/>
      <use x="281.787109" xlink:href="#DejaVuSans-116"/>
      <use x="320.996094" xlink:href="#DejaVuSans-121"/>
     </g>
    </g>
   </g>
   <g id="line2d_13">
    <path clip-path="url(#p31bdb6a7f8)" d="M 230.727273 640.727569 
L 246.021928 640.502199 
L 256.218365 640.109243 
L 261.316583 639.778885 
L 266.414801 639.319839 
L 271.51302 638.695613 
L 276.611238 637.864839 
L 281.709456 636.782616 
L 286.807675 635.40259 
L 291.905893 633.679772 
L 297.004111 631.573954 
L 302.10233 629.053494 
L 307.200548 626.099116 
L 312.298767 622.707333 
L 317.396985 618.89306 
L 322.495203 614.69103 
L 327.593422 610.155744 
L 332.69164 605.359793 
L 353.084513 585.438438 
L 358.182732 580.770153 
L 363.28095 576.40396 
L 368.379169 572.402888 
L 373.477387 568.809195 
L 378.575605 565.642687 
L 383.673824 562.900682 
L 388.772042 560.559564 
L 393.87026 558.577738 
L 398.968479 556.899729 
L 404.066697 555.461014 
L 414.263134 553.029155 
L 429.557789 549.596315 
L 439.754226 547.001233 
L 449.950662 544.085827 
L 470.343536 538.059555 
L 475.441754 536.734991 
L 480.539973 535.561693 
L 485.638191 534.570119 
L 490.736409 533.781189 
L 495.834628 533.204166 
L 500.932846 532.835349 
L 506.031064 532.657766 
L 511.129283 532.641958 
L 521.32572 532.927319 
L 531.522156 533.295203 
L 536.620375 533.377829 
L 541.718593 533.328524 
L 546.816811 533.106878 
L 551.91503 532.680248 
L 557.013248 532.024007 
L 562.111466 531.12114 
L 567.209685 529.961387 
L 572.307903 528.540189 
L 577.406122 526.857654 
L 582.50434 524.917681 
L 587.602558 522.727361 
L 592.700777 520.296665 
L 597.798995 517.638396 
L 602.897213 514.768333 
L 607.995432 511.705477 
L 613.09365 508.47227 
L 623.290087 501.601967 
L 638.584742 490.760366 
L 648.781179 483.556797 
L 658.977615 476.60759 
L 669.174052 469.961789 
L 684.468707 460.165324 
L 689.566926 456.745374 
L 694.665144 453.130595 
L 699.763362 449.239299 
L 704.861581 444.987888 
L 709.959799 440.295606 
L 715.058017 435.089543 
L 720.156236 429.309509 
L 725.254454 422.912375 
L 730.352672 415.87547 
L 735.450891 408.198736 
L 740.549109 399.905469 
L 745.647328 391.041624 
L 750.745546 381.673866 
L 755.843764 371.886613 
L 766.040201 351.457862 
L 781.334856 320.369728 
L 786.433074 310.336424 
L 791.531293 300.631777 
L 796.629511 291.331031 
L 801.72773 282.487775 
L 806.825948 274.130565 
L 811.924166 266.261126 
L 817.022385 258.854624 
L 822.120603 251.862361 
L 827.218821 245.216871 
L 832.31704 238.839009 
L 842.513476 226.561622 
L 878.201005 184.346384 
L 883.299223 178.639653 
L 888.397442 173.205574 
L 893.49566 168.126853 
L 898.593878 163.485859 
L 903.692097 159.363119 
L 908.790315 155.83697 
L 913.888534 152.984068 
L 918.986752 150.880356 
L 924.08497 149.602011 
L 929.183189 149.225893 
L 934.281407 149.829057 
L 939.379625 151.487017 
L 944.477844 154.2706 
L 949.576062 158.241436 
L 954.67428 163.446347 
L 959.772499 169.911145 
L 964.870717 177.634496 
L 969.968936 186.58266 
L 975.067154 196.685898 
L 980.165372 207.837274 
L 985.263591 219.894318 
L 990.361809 232.683751 
L 995.460027 246.009086 
L 1015.852901 300.51469 
L 1020.951119 313.505562 
L 1026.049338 325.963918 
L 1031.147556 337.817563 
L 1036.245774 349.036639 
L 1041.343993 359.632013 
L 1046.442211 369.651456 
L 1051.540429 379.174188 
L 1056.638648 388.30439 
L 1066.835085 405.886082 
L 1077.031521 423.456073 
L 1082.12974 432.556375 
L 1087.227958 442.009171 
L 1092.326176 451.891723 
L 1097.424395 462.250721 
L 1102.522613 473.097869 
L 1107.620831 484.407284 
L 1112.71905 496.115117 
L 1122.915487 520.29628 
L 1133.111923 544.515394 
L 1138.210142 556.21556 
L 1143.30836 567.415671 
L 1148.406578 577.962442 
L 1153.504797 587.726786 
L 1158.603015 596.610297 
L 1163.701233 604.549179 
L 1168.799452 611.515438 
L 1173.89767 617.515438 
L 1178.995889 622.586171 
L 1184.094107 626.789794 
L 1189.192325 630.207099 
L 1194.290544 632.930627 
L 1199.388762 635.058064 
L 1204.48698 636.686437 
L 1209.585199 637.907468 
L 1214.683417 638.804246 
L 1219.781635 639.449227 
L 1224.879854 639.903415 
L 1235.076291 640.427777 
L 1245.272727 640.657438 
L 1245.272727 640.657438 
" style="fill:none;stroke:#1f77b4;stroke-linecap:square;stroke-width:1.5;"/>
   </g>
   <g id="line2d_14">
    <path clip-path="url(#p31bdb6a7f8)" d="M 332.15207 615.107857 
L 340.269029 612.242244 
L 348.385987 609.163304 
L 356.502946 605.869767 
L 364.619905 602.362499 
L 372.736863 598.644708 
L 382.477214 593.913737 
L 392.217564 588.90309 
L 401.957914 583.633746 
L 411.698265 578.132795 
L 423.062007 571.467025 
L 437.672532 562.603598 
L 483.1275 534.74038 
L 492.86785 529.12131 
L 502.608201 523.771157 
L 510.725159 519.565549 
L 518.842118 515.629355 
L 525.335685 512.698321 
L 531.829252 509.979781 
L 538.322819 507.49003 
L 544.816385 505.244199 
L 551.309952 503.256111 
L 557.803519 501.538135 
L 564.297086 500.10106 
L 570.790653 498.953978 
L 575.660828 498.288438 
L 580.531003 497.792561 
L 585.401178 497.468136 
L 590.271354 497.316336 
L 595.141529 497.337711 
L 600.011704 497.532184 
L 604.881879 497.899049 
L 609.752054 498.436982 
L 616.245621 499.416892 
L 622.739188 500.691147 
L 629.232755 502.251654 
L 635.726322 504.088569 
L 642.219889 506.190402 
L 648.713455 508.544135 
L 655.207022 511.135358 
L 661.700589 513.948412 
L 668.194156 516.966552 
L 676.311115 521.000637 
L 684.428073 525.29139 
L 694.168424 530.726357 
L 703.908774 536.411014 
L 716.895908 544.264556 
L 742.870175 560.343041 
L 759.104092 570.243536 
L 772.091226 577.889943 
L 783.454968 584.297016 
L 793.195318 589.535782 
L 802.935669 594.512934 
L 812.676019 599.208238 
L 820.792978 602.895159 
L 828.909936 606.370925 
L 837.026895 609.63269 
L 845.143853 612.679917 
L 853.260812 615.514172 
L 861.377771 618.138896 
L 869.494729 620.559173 
L 877.611688 622.781496 
L 887.352038 625.197849 
L 897.092388 627.355254 
L 906.832739 629.270166 
L 916.573089 630.959982 
L 926.313439 632.442602 
L 937.677181 633.934467 
L 949.040923 635.196978 
L 962.028057 636.393772 
L 975.015191 637.36456 
L 989.625716 638.23002 
L 1005.859634 638.962041 
L 1023.716943 639.548437 
L 1044.821035 640.021718 
L 1070.795302 640.379571 
L 1106.50992 640.629549 
L 1143.84793 640.738123 
L 1143.84793 640.738123 
" style="fill:none;stroke:#ff7f0e;stroke-dasharray:5.55,2.4;stroke-dashoffset:0;stroke-width:1.5;"/>
   </g>
   <g id="line2d_15">
    <path clip-path="url(#p31bdb6a7f8)" d="M 332.15207 640.799874 
L 481.504108 640.689163 
L 512.348551 640.44852 
L 533.452643 640.062618 
L 548.063169 639.596607 
L 561.050303 638.969478 
L 572.414045 638.190036 
L 582.154395 637.294734 
L 590.271354 636.346883 
L 598.388312 635.175735 
L 604.881879 634.049167 
L 611.375446 632.727233 
L 617.869013 631.182528 
L 624.36258 629.385077 
L 630.856147 627.302339 
L 635.726322 625.532066 
L 640.596497 623.565959 
L 645.466672 621.387608 
L 650.336847 618.979933 
L 655.207022 616.325253 
L 660.077197 613.405371 
L 664.947373 610.20167 
L 669.817548 606.69523 
L 674.687723 602.866963 
L 679.557898 598.69776 
L 684.428073 594.168662 
L 689.298248 589.261042 
L 694.168424 583.956803 
L 699.038599 578.238603 
L 703.908774 572.090074 
L 708.778949 565.496075 
L 713.649124 558.44294 
L 718.519299 550.918741 
L 723.389475 542.913555 
L 728.25965 534.419739 
L 733.129825 525.432192 
L 738 515.948627 
L 742.870175 505.969826 
L 747.74035 495.499884 
L 752.610525 484.546442 
L 757.480701 473.120889 
L 762.350876 461.238551 
L 768.844443 444.719038 
L 775.33801 427.480158 
L 781.831576 409.593215 
L 789.948535 386.453976 
L 798.065494 362.631518 
L 811.052627 323.672042 
L 827.286545 274.999993 
L 835.403503 251.363924 
L 841.89707 233.081572 
L 848.390637 215.53661 
L 853.260812 202.961602 
L 858.130987 190.963401 
L 863.001162 179.609004 
L 867.871338 168.963055 
L 871.118121 162.289935 
L 874.364904 155.976587 
L 877.611688 150.039651 
L 880.858471 144.494918 
L 884.105255 139.357256 
L 887.352038 134.640543 
L 890.598822 130.35761 
L 893.845605 126.520178 
L 897.092388 123.138804 
L 900.339172 120.222838 
L 903.585955 117.780375 
L 906.832739 115.818217 
L 910.079522 114.341847 
L 911.702914 113.787177 
L 913.326306 113.355398 
L 914.949697 113.046812 
L 916.573089 112.861636 
L 918.196481 112.8 
L 919.819873 112.861947 
L 921.443264 113.047434 
L 923.066656 113.35633 
L 924.690048 113.788418 
L 926.313439 114.343397 
L 927.936831 115.020876 
L 931.183615 116.741352 
L 934.430398 118.945035 
L 937.677181 121.625777 
L 940.923965 124.776123 
L 944.170748 128.387345 
L 947.417532 132.449482 
L 950.664315 136.951386 
L 953.911099 141.880774 
L 957.157882 147.224282 
L 960.404665 152.967527 
L 963.651449 159.095171 
L 966.898232 165.590988 
L 971.768408 175.987556 
L 976.638583 187.113437 
L 981.508758 198.904908 
L 986.378933 211.295685 
L 991.249108 224.217543 
L 997.742675 242.152499 
L 1004.236242 260.741359 
L 1012.3532 284.643974 
L 1026.963726 328.582406 
L 1039.95086 367.452274 
L 1048.067818 391.154963 
L 1056.184777 414.132635 
L 1062.678344 431.864601 
L 1069.171911 448.929346 
L 1075.665478 465.258996 
L 1080.535653 476.990644 
L 1085.405828 488.259938 
L 1090.276003 499.052885 
L 1095.146178 509.359372 
L 1100.016353 519.172966 
L 1104.886528 528.490705 
L 1109.756704 537.312863 
L 1114.626879 545.642694 
L 1119.497054 553.486178 
L 1124.367229 560.851753 
L 1129.237404 567.750039 
L 1134.107579 574.193576 
L 1138.977755 580.196551 
L 1143.84793 585.774543 
L 1143.84793 585.774543 
" style="fill:none;stroke:#2ca02c;stroke-dasharray:5.55,2.4;stroke-dashoffset:0;stroke-width:1.5;"/>
   </g>
   <g id="patch_3">
    <path d="M 180 640.8 
L 180 86.4 
" style="fill:none;stroke:#000000;stroke-linecap:square;stroke-linejoin:miter;stroke-width:0.8;"/>
   </g>
   <g id="patch_4">
    <path d="M 1296 640.8 
L 1296 86.4 
" style="fill:none;stroke:#000000;stroke-linecap:square;stroke-linejoin:miter;stroke-width:0.8;"/>
   </g>
   <g id="patch_5">
    <path d="M 180 640.8 
L 1296 640.8 
" style="fill:none;stroke:#000000;stroke-linecap:square;stroke-linejoin:miter;stroke-width:0.8;"/>
   </g>
   <g id="patch_6">
    <path d="M 180 86.4 
L 1296 86.4 
" style="fill:none;stroke:#000000;stroke-linecap:square;stroke-linejoin:miter;stroke-width:0.8;"/>
   </g>
   <g id="text_15">
    <!-- logFC Density Plot  -->
    <g transform="translate(620.027344 80.4)scale(0.25 -0.25)">
     <defs>
      <path id="DejaVuSans-32"/>
      <path d="M 19.671875 64.796875 
L 19.671875 37.40625 
L 32.078125 37.40625 
Q 38.96875 37.40625 42.71875 40.96875 
Q 46.484375 44.53125 46.484375 51.125 
Q 46.484375 57.671875 42.71875 61.234375 
Q 38.96875 64.796875 32.078125 64.796875 
z
M 9.8125 72.90625 
L 32.078125 72.90625 
Q 44.34375 72.90625 50.609375 67.359375 
Q 56.890625 61.8125 56.890625 51.125 
Q 56.890625 40.328125 50.609375 34.8125 
Q 44.34375 29.296875 32.078125 29.296875 
L 19.671875 29.296875 
L 19.671875 0 
L 9.8125 0 
z
" id="DejaVuSans-80"/>
     </defs>
     <use xlink:href="#DejaVuSans-108"/>
     <use x="27.783203" xlink:href="#DejaVuSans-111"/>
     <use x="88.964844" xlink:href="#DejaVuSans-103"/>
     <use x="152.441406" xlink:href="#DejaVuSans-70"/>
     <use x="209.960938" xlink:href="#DejaVuSans-67"/>
     <use x="279.785156" xlink:href="#DejaVuSans-32"/>
     <use x="311.572266" xlink:href="#DejaVuSans-68"/>
     <use x="388.574219" xlink:href="#DejaVuSans-101"/>
     <use x="450.097656" xlink:href="#DejaVuSans-110"/>
     <use x="513.476562" xlink:href="#DejaVuSans-115"/>
     <use x="565.576172" xlink:href="#DejaVuSans-105"/>
     <use x="593.359375" xlink:href="#DejaVuSans-116"/>
     <use x="632.568359" xlink:href="#DejaVuSans-121"/>
     <use x="691.748047" xlink:href="#DejaVuSans-32"/>
     <use x="723.535156" xlink:href="#DejaVuSans-80"/>
     <use x="783.837891" xlink:href="#DejaVuSans-108"/>
     <use x="811.621094" xlink:href="#DejaVuSans-111"/>
     <use x="872.802734" xlink:href="#DejaVuSans-116"/>
     <use x="912.011719" xlink:href="#DejaVuSans-32"/>
    </g>
   </g>
   <g id="legend_1">
    <g id="patch_7">
     <path d="M 1086.6175 187.778125 
L 1284.8 187.778125 
Q 1288 187.778125 1288 184.578125 
L 1288 97.6 
Q 1288 94.4 1284.8 94.4 
L 1086.6175 94.4 
Q 1083.4175 94.4 1083.4175 97.6 
L 1083.4175 184.578125 
Q 1083.4175 187.778125 1086.6175 187.778125 
z
" style="fill:#ffffff;opacity:0.8;stroke:#cccccc;stroke-linejoin:miter;"/>
    </g>
    <g id="text_16">
     <!-- Variants -->
     <g transform="translate(1165.369688 108.398437)scale(0.1 -0.1)">
      <defs>
       <path d="M 28.609375 0 
L 0.78125 72.90625 
L 11.078125 72.90625 
L 34.1875 11.53125 
L 57.328125 72.90625 
L 67.578125 72.90625 
L 39.796875 0 
z
" id="DejaVuSans-86"/>
       <path d="M 34.28125 27.484375 
Q 23.390625 27.484375 19.1875 25 
Q 14.984375 22.515625 14.984375 16.5 
Q 14.984375 11.71875 18.140625 8.90625 
Q 21.296875 6.109375 26.703125 6.109375 
Q 34.1875 6.109375 38.703125 11.40625 
Q 43.21875 16.703125 43.21875 25.484375 
L 43.21875 27.484375 
z
M 52.203125 31.203125 
L 52.203125 0 
L 43.21875 0 
L 43.21875 8.296875 
Q 40.140625 3.328125 35.546875 0.953125 
Q 30.953125 -1.421875 24.3125 -1.421875 
Q 15.921875 -1.421875 10.953125 3.296875 
Q 6 8.015625 6 15.921875 
Q 6 25.140625 12.171875 29.828125 
Q 18.359375 34.515625 30.609375 34.515625 
L 43.21875 34.515625 
L 43.21875 35.40625 
Q 43.21875 41.609375 39.140625 45 
Q 35.0625 48.390625 27.6875 48.390625 
Q 23 48.390625 18.546875 47.265625 
Q 14.109375 46.140625 10.015625 43.890625 
L 10.015625 52.203125 
Q 14.9375 54.109375 19.578125 55.046875 
Q 24.21875 56 28.609375 56 
Q 40.484375 56 46.34375 49.84375 
Q 52.203125 43.703125 52.203125 31.203125 
z
" id="DejaVuSans-97"/>
       <path d="M 41.109375 46.296875 
Q 39.59375 47.171875 37.8125 47.578125 
Q 36.03125 48 33.890625 48 
Q 26.265625 48 22.1875 43.046875 
Q 18.109375 38.09375 18.109375 28.8125 
L 18.109375 0 
L 9.078125 0 
L 9.078125 54.6875 
L 18.109375 54.6875 
L 18.109375 46.1875 
Q 20.953125 51.171875 25.484375 53.578125 
Q 30.03125 56 36.53125 56 
Q 37.453125 56 38.578125 55.875 
Q 39.703125 55.765625 41.0625 55.515625 
z
" id="DejaVuSans-114"/>
      </defs>
      <use xlink:href="#DejaVuSans-86"/>
      <use x="60.658203" xlink:href="#DejaVuSans-97"/>
      <use x="121.9375" xlink:href="#DejaVuSans-114"/>
      <use x="163.050781" xlink:href="#DejaVuSans-105"/>
      <use x="190.833984" xlink:href="#DejaVuSans-97"/>
      <use x="252.113281" xlink:href="#DejaVuSans-110"/>
      <use x="315.492188" xlink:href="#DejaVuSans-116"/>
      <use x="354.701172" xlink:href="#DejaVuSans-115"/>
     </g>
    </g>
    <g id="line2d_16">
     <path d="M 1089.8175 125.035625 
L 1121.8175 125.035625 
" style="fill:none;stroke:#1f77b4;stroke-linecap:square;stroke-width:1.5;"/>
    </g>
    <g id="line2d_17"/>
    <g id="text_17">
     <!-- Mixture -->
     <g transform="translate(1134.6175 130.635625)scale(0.16 -0.16)">
      <defs>
       <path d="M 9.8125 72.90625 
L 24.515625 72.90625 
L 43.109375 23.296875 
L 61.8125 72.90625 
L 76.515625 72.90625 
L 76.515625 0 
L 66.890625 0 
L 66.890625 64.015625 
L 48.09375 14.015625 
L 38.1875 14.015625 
L 19.390625 64.015625 
L 19.390625 0 
L 9.8125 0 
z
" id="DejaVuSans-77"/>
       <path d="M 54.890625 54.6875 
L 35.109375 28.078125 
L 55.90625 0 
L 45.3125 0 
L 29.390625 21.484375 
L 13.484375 0 
L 2.875 0 
L 24.125 28.609375 
L 4.6875 54.6875 
L 15.28125 54.6875 
L 29.78125 35.203125 
L 44.28125 54.6875 
z
" id="DejaVuSans-120"/>
       <path d="M 8.5 21.578125 
L 8.5 54.6875 
L 17.484375 54.6875 
L 17.484375 21.921875 
Q 17.484375 14.15625 20.5 10.265625 
Q 23.53125 6.390625 29.59375 6.390625 
Q 36.859375 6.390625 41.078125 11.03125 
Q 45.3125 15.671875 45.3125 23.6875 
L 45.3125 54.6875 
L 54.296875 54.6875 
L 54.296875 0 
L 45.3125 0 
L 45.3125 8.40625 
Q 42.046875 3.421875 37.71875 1 
Q 33.40625 -1.421875 27.6875 -1.421875 
Q 18.265625 -1.421875 13.375 4.4375 
Q 8.5 10.296875 8.5 21.578125 
z
M 31.109375 56 
z
" id="DejaVuSans-117"/>
      </defs>
      <use xlink:href="#DejaVuSans-77"/>
      <use x="86.279297" xlink:href="#DejaVuSans-105"/>
      <use x="114.0625" xlink:href="#DejaVuSans-120"/>
      <use x="173.242188" xlink:href="#DejaVuSans-116"/>
      <use x="212.451172" xlink:href="#DejaVuSans-117"/>
      <use x="275.830078" xlink:href="#DejaVuSans-114"/>
      <use x="314.693359" xlink:href="#DejaVuSans-101"/>
     </g>
    </g>
    <g id="line2d_18">
     <path d="M 1089.8175 148.520625 
L 1121.8175 148.520625 
" style="fill:none;stroke:#ff7f0e;stroke-dasharray:5.55,2.4;stroke-dashoffset:0;stroke-width:1.5;"/>
    </g>
    <g id="line2d_19"/>
    <g id="text_18">
     <!-- Fitted LowQuality -->
     <g transform="translate(1134.6175 154.120625)scale(0.16 -0.16)">
      <defs>
       <path d="M 45.40625 46.390625 
L 45.40625 75.984375 
L 54.390625 75.984375 
L 54.390625 0 
L 45.40625 0 
L 45.40625 8.203125 
Q 42.578125 3.328125 38.25 0.953125 
Q 33.9375 -1.421875 27.875 -1.421875 
Q 17.96875 -1.421875 11.734375 6.484375 
Q 5.515625 14.40625 5.515625 27.296875 
Q 5.515625 40.1875 11.734375 48.09375 
Q 17.96875 56 27.875 56 
Q 33.9375 56 38.25 53.625 
Q 42.578125 51.265625 45.40625 46.390625 
z
M 14.796875 27.296875 
Q 14.796875 17.390625 18.875 11.75 
Q 22.953125 6.109375 30.078125 6.109375 
Q 37.203125 6.109375 41.296875 11.75 
Q 45.40625 17.390625 45.40625 27.296875 
Q 45.40625 37.203125 41.296875 42.84375 
Q 37.203125 48.484375 30.078125 48.484375 
Q 22.953125 48.484375 18.875 42.84375 
Q 14.796875 37.203125 14.796875 27.296875 
z
" id="DejaVuSans-100"/>
       <path d="M 9.8125 72.90625 
L 19.671875 72.90625 
L 19.671875 8.296875 
L 55.171875 8.296875 
L 55.171875 0 
L 9.8125 0 
z
" id="DejaVuSans-76"/>
       <path d="M 4.203125 54.6875 
L 13.1875 54.6875 
L 24.421875 12.015625 
L 35.59375 54.6875 
L 46.1875 54.6875 
L 57.421875 12.015625 
L 68.609375 54.6875 
L 77.59375 54.6875 
L 63.28125 0 
L 52.6875 0 
L 40.921875 44.828125 
L 29.109375 0 
L 18.5 0 
z
" id="DejaVuSans-119"/>
       <path d="M 39.40625 66.21875 
Q 28.65625 66.21875 22.328125 58.203125 
Q 16.015625 50.203125 16.015625 36.375 
Q 16.015625 22.609375 22.328125 14.59375 
Q 28.65625 6.59375 39.40625 6.59375 
Q 50.140625 6.59375 56.421875 14.59375 
Q 62.703125 22.609375 62.703125 36.375 
Q 62.703125 50.203125 56.421875 58.203125 
Q 50.140625 66.21875 39.40625 66.21875 
z
M 53.21875 1.3125 
L 66.21875 -12.890625 
L 54.296875 -12.890625 
L 43.5 -1.21875 
Q 41.890625 -1.3125 41.03125 -1.359375 
Q 40.1875 -1.421875 39.40625 -1.421875 
Q 24.03125 -1.421875 14.8125 8.859375 
Q 5.609375 19.140625 5.609375 36.375 
Q 5.609375 53.65625 14.8125 63.9375 
Q 24.03125 74.21875 39.40625 74.21875 
Q 54.734375 74.21875 63.90625 63.9375 
Q 73.09375 53.65625 73.09375 36.375 
Q 73.09375 23.6875 67.984375 14.640625 
Q 62.890625 5.609375 53.21875 1.3125 
z
" id="DejaVuSans-81"/>
      </defs>
      <use xlink:href="#DejaVuSans-70"/>
      <use x="50.269531" xlink:href="#DejaVuSans-105"/>
      <use x="78.052734" xlink:href="#DejaVuSans-116"/>
      <use x="117.261719" xlink:href="#DejaVuSans-116"/>
      <use x="156.470703" xlink:href="#DejaVuSans-101"/>
      <use x="217.994141" xlink:href="#DejaVuSans-100"/>
      <use x="281.470703" xlink:href="#DejaVuSans-32"/>
      <use x="313.257812" xlink:href="#DejaVuSans-76"/>
      <use x="367.220703" xlink:href="#DejaVuSans-111"/>
      <use x="428.402344" xlink:href="#DejaVuSans-119"/>
      <use x="510.189453" xlink:href="#DejaVuSans-81"/>
      <use x="588.900391" xlink:href="#DejaVuSans-117"/>
      <use x="652.279297" xlink:href="#DejaVuSans-97"/>
      <use x="713.558594" xlink:href="#DejaVuSans-108"/>
      <use x="741.341797" xlink:href="#DejaVuSans-105"/>
      <use x="769.125" xlink:href="#DejaVuSans-116"/>
      <use x="808.333984" xlink:href="#DejaVuSans-121"/>
     </g>
    </g>
    <g id="line2d_20">
     <path d="M 1089.8175 172.005625 
L 1121.8175 172.005625 
" style="fill:none;stroke:#2ca02c;stroke-dasharray:5.55,2.4;stroke-dashoffset:0;stroke-width:1.5;"/>
    </g>
    <g id="line2d_21"/>
    <g id="text_19">
     <!-- Fitted_HighQuality -->
     <g transform="translate(1134.6175 177.605625)scale(0.16 -0.16)">
      <defs>
       <path d="M 9.8125 72.90625 
L 19.671875 72.90625 
L 19.671875 43.015625 
L 55.515625 43.015625 
L 55.515625 72.90625 
L 65.375 72.90625 
L 65.375 0 
L 55.515625 0 
L 55.515625 34.71875 
L 19.671875 34.71875 
L 19.671875 0 
L 9.8125 0 
z
" id="DejaVuSans-72"/>
       <path d="M 54.890625 33.015625 
L 54.890625 0 
L 45.90625 0 
L 45.90625 32.71875 
Q 45.90625 40.484375 42.875 44.328125 
Q 39.84375 48.1875 33.796875 48.1875 
Q 26.515625 48.1875 22.3125 43.546875 
Q 18.109375 38.921875 18.109375 30.90625 
L 18.109375 0 
L 9.078125 0 
L 9.078125 75.984375 
L 18.109375 75.984375 
L 18.109375 46.1875 
Q 21.34375 51.125 25.703125 53.5625 
Q 30.078125 56 35.796875 56 
Q 45.21875 56 50.046875 50.171875 
Q 54.890625 44.34375 54.890625 33.015625 
z
" id="DejaVuSans-104"/>
      </defs>
      <use xlink:href="#DejaVuSans-70"/>
      <use x="50.269531" xlink:href="#DejaVuSans-105"/>
      <use x="78.052734" xlink:href="#DejaVuSans-116"/>
      <use x="117.261719" xlink:href="#DejaVuSans-116"/>
      <use x="156.470703" xlink:href="#DejaVuSans-101"/>
      <use x="217.994141" xlink:href="#DejaVuSans-100"/>
      <use x="281.470703" xlink:href="#DejaVuSans-95"/>
      <use x="331.470703" xlink:href="#DejaVuSans-72"/>
      <use x="406.666016" xlink:href="#DejaVuSans-105"/>
      <use x="434.449219" xlink:href="#DejaVuSans-103"/>
      <use x="497.925781" xlink:href="#DejaVuSans-104"/>
      <use x="561.304688" xlink:href="#DejaVuSans-81"/>
      <use x="640.015625" xlink:href="#DejaVuSans-117"/>
      <use x="703.394531" xlink:href="#DejaVuSans-97"/>
      <use x="764.673828" xlink:href="#DejaVuSans-108"/>
      <use x="792.457031" xlink:href="#DejaVuSans-105"/>
      <use x="820.240234" xlink:href="#DejaVuSans-116"/>
      <use x="859.449219" xlink:href="#DejaVuSans-121"/>
     </g>
    </g>
   </g>
  </g>
 </g>
 <defs>
  <clipPath id="p31bdb6a7f8">
   <rect height="554.4" width="1116" x="180" y="86.4"/>
  </clipPath>
 </defs>
</svg>
